<svg xmlns="http://www.w3.org/2000/svg" xmlns:xlink="http://www.w3.org/1999/xlink" width="1280" zoomAndPan="magnify" viewBox="0 0 960 274.499992" height="366" preserveAspectRatio="xMidYMid meet" version="1.0"><defs><g/><clipPath id="6e9c7937a4"><path d="M 0.871094 0 L 959.125 0 L 959.125 274 L 0.871094 274 Z M 0.871094 0 " clip-rule="nonzero"/></clipPath></defs><g clip-path="url(#6e9c7937a4)"><path fill="#ffffff" d="M 0.871094 0 L 959.128906 0 L 959.128906 281.488281 L 0.871094 281.488281 Z M 0.871094 0 " fill-opacity="1" fill-rule="nonzero"/><path fill="#ffffff" d="M 0.871094 0 L 959.128906 0 L 959.128906 274 L 0.871094 274 Z M 0.871094 0 " fill-opacity="1" fill-rule="nonzero"/><path fill="#c42217" d="M 0.871094 0 L 959.128906 0 L 959.128906 274 L 0.871094 274 Z M 0.871094 0 " fill-opacity="1" fill-rule="nonzero"/></g><g fill="#ffffff" fill-opacity="1"><g transform="translate(224.611164, 171.551536)"><g><path d="M 29.890625 -11.53125 L 30.96875 -12.3125 C 32.332031 -13.101562 33.296875 -13.5 33.859375 -13.5 C 35.097656 -13.5 36.4375 -12.378906 37.875 -10.140625 C 38.757812 -8.742188 39.203125 -7.625 39.203125 -6.78125 C 39.203125 -5.9375 38.929688 -5.234375 38.390625 -4.671875 C 37.847656 -4.117188 37.21875 -3.617188 36.5 -3.171875 C 35.78125 -2.734375 35.085938 -2.316406 34.421875 -1.921875 C 33.765625 -1.523438 32.414062 -1.003906 30.375 -0.359375 C 28.332031 0.273438 26.359375 0.59375 24.453125 0.59375 C 22.554688 0.59375 20.632812 0.34375 18.6875 -0.15625 C 16.75 -0.65625 14.75 -1.492188 12.6875 -2.671875 C 10.632812 -3.847656 8.785156 -5.285156 7.140625 -6.984375 C 5.503906 -8.691406 4.15625 -10.875 3.09375 -13.53125 C 2.03125 -16.195312 1.5 -19.085938 1.5 -22.203125 C 1.5 -25.328125 2.019531 -28.160156 3.0625 -30.703125 C 4.101562 -33.242188 5.429688 -35.34375 7.046875 -37 C 8.671875 -38.664062 10.523438 -40.0625 12.609375 -41.1875 C 16.523438 -43.34375 20.46875 -44.421875 24.4375 -44.421875 C 26.3125 -44.421875 28.21875 -44.128906 30.15625 -43.546875 C 32.101562 -42.972656 33.578125 -42.382812 34.578125 -41.78125 L 36.015625 -40.9375 C 36.734375 -40.5 37.296875 -40.140625 37.703125 -39.859375 C 38.742188 -39.015625 39.265625 -38.0625 39.265625 -37 C 39.265625 -35.945312 38.84375 -34.835938 38 -33.671875 C 36.4375 -31.515625 35.035156 -30.4375 33.796875 -30.4375 C 33.078125 -30.4375 32.054688 -30.875 30.734375 -31.75 C 29.054688 -33.113281 26.816406 -33.796875 24.015625 -33.796875 C 21.410156 -33.796875 18.847656 -32.894531 16.328125 -31.09375 C 15.128906 -30.21875 14.128906 -28.976562 13.328125 -27.375 C 12.523438 -25.769531 12.125 -23.957031 12.125 -21.9375 C 12.125 -19.914062 12.523438 -18.101562 13.328125 -16.5 C 14.128906 -14.90625 15.148438 -13.648438 16.390625 -12.734375 C 18.828125 -10.960938 21.367188 -10.078125 24.015625 -10.078125 C 25.253906 -10.078125 26.421875 -10.238281 27.515625 -10.5625 C 28.617188 -10.882812 29.410156 -11.207031 29.890625 -11.53125 Z M 29.890625 -11.53125 "/></g></g></g><g fill="#ffffff" fill-opacity="1"><g transform="translate(265.369252, 171.551536)"><g><path d="M 27.796875 -40.875 L 44 -7.390625 C 44.675781 -6.023438 45.015625 -5.003906 45.015625 -4.328125 C 45.015625 -2.878906 43.859375 -1.578125 41.546875 -0.421875 C 40.179688 0.253906 39.109375 0.59375 38.328125 0.59375 C 37.546875 0.59375 36.90625 0.410156 36.40625 0.046875 C 35.90625 -0.304688 35.546875 -0.679688 35.328125 -1.078125 C 35.109375 -1.484375 34.796875 -2.082031 34.390625 -2.875 L 31.28125 -9.359375 L 14.640625 -9.359375 L 11.53125 -2.875 C 11.125 -2.082031 10.8125 -1.503906 10.59375 -1.140625 C 10.375 -0.773438 10.015625 -0.398438 9.515625 -0.015625 C 9.015625 0.359375 8.375 0.546875 7.59375 0.546875 C 6.8125 0.546875 5.738281 0.203125 4.375 -0.484375 C 2.0625 -1.597656 0.90625 -2.878906 0.90625 -4.328125 C 0.90625 -5.003906 1.242188 -6.023438 1.921875 -7.390625 L 18.125 -40.9375 C 18.570312 -41.863281 19.242188 -42.601562 20.140625 -43.15625 C 21.035156 -43.71875 21.984375 -44 22.984375 -44 C 25.148438 -44 26.753906 -42.957031 27.796875 -40.875 Z M 22.9375 -26.46875 L 18.96875 -18.25 L 26.953125 -18.25 Z M 22.9375 -26.46875 "/></g></g></g><g fill="#ffffff" fill-opacity="1"><g transform="translate(311.289629, 171.551536)"><g><path d="M 3.0625 -6.1875 C 2.019531 -7.46875 1.5 -8.617188 1.5 -9.640625 C 1.5 -10.660156 2.359375 -12.007812 4.078125 -13.6875 C 5.078125 -14.644531 6.132812 -15.125 7.25 -15.125 C 8.375 -15.125 9.941406 -14.125 11.953125 -12.125 C 12.503906 -11.445312 13.300781 -10.796875 14.34375 -10.171875 C 15.382812 -9.554688 16.347656 -9.25 17.234375 -9.25 C 20.953125 -9.25 22.8125 -10.769531 22.8125 -13.8125 C 22.8125 -14.726562 22.300781 -15.492188 21.28125 -16.109375 C 20.257812 -16.734375 18.988281 -17.1875 17.46875 -17.46875 C 15.945312 -17.75 14.304688 -18.195312 12.546875 -18.8125 C 10.785156 -19.4375 9.144531 -20.164062 7.625 -21 C 6.101562 -21.84375 4.832031 -23.175781 3.8125 -25 C 2.789062 -26.820312 2.28125 -29.015625 2.28125 -31.578125 C 2.28125 -35.097656 3.585938 -38.164062 6.203125 -40.78125 C 8.828125 -43.40625 12.398438 -44.71875 16.921875 -44.71875 C 19.328125 -44.71875 21.519531 -44.40625 23.5 -43.78125 C 25.476562 -43.164062 26.847656 -42.539062 27.609375 -41.90625 L 29.109375 -40.765625 C 30.347656 -39.597656 30.96875 -38.613281 30.96875 -37.8125 C 30.96875 -37.019531 30.488281 -35.921875 29.53125 -34.515625 C 28.175781 -32.515625 26.773438 -31.515625 25.328125 -31.515625 C 24.492188 -31.515625 23.457031 -31.914062 22.21875 -32.71875 C 22.09375 -32.800781 21.859375 -33 21.515625 -33.3125 C 21.179688 -33.632812 20.875 -33.894531 20.59375 -34.09375 C 19.75 -34.613281 18.675781 -34.875 17.375 -34.875 C 16.070312 -34.875 14.988281 -34.5625 14.125 -33.9375 C 13.269531 -33.320312 12.84375 -32.460938 12.84375 -31.359375 C 12.84375 -30.265625 13.351562 -29.375 14.375 -28.6875 C 15.394531 -28.007812 16.664062 -27.550781 18.1875 -27.3125 C 19.707031 -27.070312 21.367188 -26.703125 23.171875 -26.203125 C 24.972656 -25.703125 26.632812 -25.09375 28.15625 -24.375 C 29.675781 -23.65625 30.945312 -22.40625 31.96875 -20.625 C 32.988281 -18.84375 33.5 -16.648438 33.5 -14.046875 C 33.5 -11.441406 32.976562 -9.148438 31.9375 -7.171875 C 30.894531 -5.191406 29.535156 -3.660156 27.859375 -2.578125 C 24.609375 -0.460938 21.144531 0.59375 17.46875 0.59375 C 15.582031 0.59375 13.800781 0.363281 12.125 -0.09375 C 10.445312 -0.550781 9.085938 -1.117188 8.046875 -1.796875 C 5.921875 -3.078125 4.441406 -4.316406 3.609375 -5.515625 Z M 3.0625 -6.1875 "/></g></g></g><g fill="#ffffff" fill-opacity="1"><g transform="translate(346.285155, 171.551536)"><g><path d="M 27.796875 -40.875 L 44 -7.390625 C 44.675781 -6.023438 45.015625 -5.003906 45.015625 -4.328125 C 45.015625 -2.878906 43.859375 -1.578125 41.546875 -0.421875 C 40.179688 0.253906 39.109375 0.59375 38.328125 0.59375 C 37.546875 0.59375 36.90625 0.410156 36.40625 0.046875 C 35.90625 -0.304688 35.546875 -0.679688 35.328125 -1.078125 C 35.109375 -1.484375 34.796875 -2.082031 34.390625 -2.875 L 31.28125 -9.359375 L 14.640625 -9.359375 L 11.53125 -2.875 C 11.125 -2.082031 10.8125 -1.503906 10.59375 -1.140625 C 10.375 -0.773438 10.015625 -0.398438 9.515625 -0.015625 C 9.015625 0.359375 8.375 0.546875 7.59375 0.546875 C 6.8125 0.546875 5.738281 0.203125 4.375 -0.484375 C 2.0625 -1.597656 0.90625 -2.878906 0.90625 -4.328125 C 0.90625 -5.003906 1.242188 -6.023438 1.921875 -7.390625 L 18.125 -40.9375 C 18.570312 -41.863281 19.242188 -42.601562 20.140625 -43.15625 C 21.035156 -43.71875 21.984375 -44 22.984375 -44 C 25.148438 -44 26.753906 -42.957031 27.796875 -40.875 Z M 22.9375 -26.46875 L 18.96875 -18.25 L 26.953125 -18.25 Z M 22.9375 -26.46875 "/></g></g></g><g fill="#ffffff" fill-opacity="1"><g transform="translate(392.205523, 171.551536)"><g><path d="M 49.171875 -42.328125 C 49.484375 -41.722656 49.671875 -41.179688 49.734375 -40.703125 C 49.796875 -40.222656 49.828125 -39.519531 49.828125 -38.59375 L 49.828125 -5.28125 C 49.828125 -2.519531 49.066406 -0.898438 47.546875 -0.421875 C 46.785156 -0.179688 45.820312 -0.0625 44.65625 -0.0625 C 43.5 -0.0625 42.578125 -0.160156 41.890625 -0.359375 C 41.210938 -0.554688 40.691406 -0.796875 40.328125 -1.078125 C 39.972656 -1.359375 39.695312 -1.757812 39.5 -2.28125 C 39.300781 -2.957031 39.203125 -4 39.203125 -5.40625 L 39.203125 -25.515625 C 38.203125 -24.273438 36.738281 -22.300781 34.8125 -19.59375 C 32.894531 -16.894531 31.675781 -15.203125 31.15625 -14.515625 C 30.632812 -13.835938 30.273438 -13.367188 30.078125 -13.109375 C 29.878906 -12.859375 29.390625 -12.5 28.609375 -12.03125 C 27.828125 -11.570312 26.984375 -11.34375 26.078125 -11.34375 C 25.179688 -11.34375 24.363281 -11.550781 23.625 -11.96875 C 22.882812 -12.394531 22.351562 -12.804688 22.03125 -13.203125 L 21.546875 -13.875 C 20.742188 -14.875 19.160156 -17.003906 16.796875 -20.265625 C 14.441406 -23.523438 13.164062 -25.273438 12.96875 -25.515625 L 12.96875 -5.28125 C 12.96875 -4.363281 12.9375 -3.671875 12.875 -3.203125 C 12.8125 -2.742188 12.625 -2.238281 12.3125 -1.6875 C 11.707031 -0.601562 10.144531 -0.0625 7.625 -0.0625 C 5.1875 -0.0625 3.664062 -0.601562 3.0625 -1.6875 C 2.738281 -2.238281 2.546875 -2.753906 2.484375 -3.234375 C 2.429688 -3.722656 2.40625 -4.445312 2.40625 -5.40625 L 2.40625 -38.71875 C 2.40625 -39.632812 2.429688 -40.320312 2.484375 -40.78125 C 2.546875 -41.25 2.738281 -41.78125 3.0625 -42.375 C 3.664062 -43.414062 5.226562 -43.9375 7.75 -43.9375 C 8.820312 -43.9375 9.75 -43.804688 10.53125 -43.546875 C 11.3125 -43.285156 11.820312 -43.019531 12.0625 -42.75 L 12.421875 -42.375 L 26.046875 -24.5 C 32.859375 -33.5 37.40625 -39.441406 39.6875 -42.328125 C 40.363281 -43.398438 41.972656 -43.9375 44.515625 -43.9375 C 47.054688 -43.9375 48.609375 -43.398438 49.171875 -42.328125 Z M 49.171875 -42.328125 "/></g></g></g><g fill="#ffffff" fill-opacity="1"><g transform="translate(444.428698, 171.551536)"><g><path d="M 27.796875 -40.875 L 44 -7.390625 C 44.675781 -6.023438 45.015625 -5.003906 45.015625 -4.328125 C 45.015625 -2.878906 43.859375 -1.578125 41.546875 -0.421875 C 40.179688 0.253906 39.109375 0.59375 38.328125 0.59375 C 37.546875 0.59375 36.90625 0.410156 36.40625 0.046875 C 35.90625 -0.304688 35.546875 -0.679688 35.328125 -1.078125 C 35.109375 -1.484375 34.796875 -2.082031 34.390625 -2.875 L 31.28125 -9.359375 L 14.640625 -9.359375 L 11.53125 -2.875 C 11.125 -2.082031 10.8125 -1.503906 10.59375 -1.140625 C 10.375 -0.773438 10.015625 -0.398438 9.515625 -0.015625 C 9.015625 0.359375 8.375 0.546875 7.59375 0.546875 C 6.8125 0.546875 5.738281 0.203125 4.375 -0.484375 C 2.0625 -1.597656 0.90625 -2.878906 0.90625 -4.328125 C 0.90625 -5.003906 1.242188 -6.023438 1.921875 -7.390625 L 18.125 -40.9375 C 18.570312 -41.863281 19.242188 -42.601562 20.140625 -43.15625 C 21.035156 -43.71875 21.984375 -44 22.984375 -44 C 25.148438 -44 26.753906 -42.957031 27.796875 -40.875 Z M 22.9375 -26.46875 L 18.96875 -18.25 L 26.953125 -18.25 Z M 22.9375 -26.46875 "/></g></g></g><g fill="#ffffff" fill-opacity="1"><g transform="translate(490.349083, 171.551536)"><g><path d="M 36.078125 -7.4375 C 36.679688 -6 36.984375 -4.960938 36.984375 -4.328125 C 36.984375 -2.804688 35.738281 -1.523438 33.25 -0.484375 C 31.976562 0.078125 30.953125 0.359375 30.171875 0.359375 C 29.390625 0.359375 28.75 0.171875 28.25 -0.203125 C 27.75 -0.585938 27.378906 -0.976562 27.140625 -1.375 C 26.734375 -2.132812 25.171875 -5.757812 22.453125 -12.25 L 20.59375 -12.125 L 13.03125 -12.125 L 13.03125 -5.34375 C 13.03125 -4.425781 13 -3.734375 12.9375 -3.265625 C 12.875 -2.804688 12.679688 -2.28125 12.359375 -1.6875 C 11.804688 -0.601562 10.25 -0.0625 7.6875 -0.0625 C 4.882812 -0.0625 3.242188 -0.800781 2.765625 -2.28125 C 2.523438 -2.957031 2.40625 -4 2.40625 -5.40625 L 2.40625 -38.71875 C 2.40625 -39.632812 2.429688 -40.320312 2.484375 -40.78125 C 2.546875 -41.25 2.738281 -41.78125 3.0625 -42.375 C 3.625 -43.457031 5.1875 -44 7.75 -44 L 20.703125 -44 C 24.234375 -44 27.65625 -42.71875 30.96875 -40.15625 C 32.570312 -38.914062 33.894531 -37.234375 34.9375 -35.109375 C 35.976562 -32.992188 36.5 -30.632812 36.5 -28.03125 C 36.5 -23.507812 35 -19.789062 32 -16.875 C 32.875 -14.75 34.234375 -11.601562 36.078125 -7.4375 Z M 13.03125 -22.75 L 20.703125 -22.75 C 21.867188 -22.75 23.03125 -23.1875 24.1875 -24.0625 C 25.351562 -24.945312 25.9375 -26.269531 25.9375 -28.03125 C 25.9375 -29.789062 25.351562 -31.117188 24.1875 -32.015625 C 23.03125 -32.921875 21.832031 -33.375 20.59375 -33.375 L 13.03125 -33.375 Z M 13.03125 -22.75 "/></g></g></g><g fill="#ffffff" fill-opacity="1"><g transform="translate(528.225911, 171.551536)"><g><path d="M 21.25 -22.09375 C 27.375 -16.207031 31.71875 -11.785156 34.28125 -8.828125 C 35.601562 -7.347656 36.265625 -6.097656 36.265625 -5.078125 C 36.265625 -4.054688 35.460938 -2.851562 33.859375 -1.46875 C 32.253906 -0.09375 30.941406 0.59375 29.921875 0.59375 C 28.898438 0.59375 27.671875 -0.242188 26.234375 -1.921875 L 13.03125 -16.984375 L 13.03125 -5.28125 C 13.03125 -4.320312 13 -3.617188 12.9375 -3.171875 C 12.875 -2.734375 12.679688 -2.21875 12.359375 -1.625 C 11.804688 -0.539062 10.25 0 7.6875 0 C 4.882812 0 3.242188 -0.757812 2.765625 -2.28125 C 2.523438 -2.914062 2.40625 -3.9375 2.40625 -5.34375 L 2.40625 -38.71875 C 2.40625 -39.632812 2.429688 -40.320312 2.484375 -40.78125 C 2.546875 -41.25 2.738281 -41.78125 3.0625 -42.375 C 3.625 -43.457031 5.1875 -44 7.75 -44 C 10.550781 -44 12.210938 -43.257812 12.734375 -41.78125 C 12.929688 -41.101562 13.03125 -40.0625 13.03125 -38.65625 L 13.03125 -27.1875 C 18.46875 -33.3125 22.867188 -38.335938 26.234375 -42.265625 C 27.628906 -43.898438 28.847656 -44.71875 29.890625 -44.71875 C 30.929688 -44.71875 32.253906 -44.023438 33.859375 -42.640625 C 35.460938 -41.265625 36.265625 -40.066406 36.265625 -39.046875 C 36.265625 -38.023438 35.660156 -36.816406 34.453125 -35.421875 C 32.128906 -32.734375 28.53125 -29.050781 23.65625 -24.375 Z M 21.25 -22.09375 "/></g></g></g><g fill="#ffffff" fill-opacity="1"><g transform="translate(566.582924, 171.551536)"><g><path d="M 2.40625 -38.71875 C 2.40625 -39.632812 2.429688 -40.320312 2.484375 -40.78125 C 2.546875 -41.25 2.738281 -41.78125 3.0625 -42.375 C 3.625 -43.457031 5.1875 -44 7.75 -44 C 10.550781 -44 12.210938 -43.257812 12.734375 -41.78125 C 12.929688 -41.101562 13.03125 -40.0625 13.03125 -38.65625 L 13.03125 -5.28125 C 13.03125 -4.320312 13 -3.617188 12.9375 -3.171875 C 12.875 -2.734375 12.679688 -2.21875 12.359375 -1.625 C 11.804688 -0.539062 10.25 0 7.6875 0 C 4.882812 0 3.242188 -0.757812 2.765625 -2.28125 C 2.523438 -2.914062 2.40625 -3.9375 2.40625 -5.34375 Z M 2.40625 -38.71875 "/></g></g></g><g fill="#ffffff" fill-opacity="1"><g transform="translate(582.009762, 171.551536)"><g><path d="M 5.28125 -44.0625 L 38.65625 -44.0625 C 39.9375 -44.0625 40.875 -43.910156 41.46875 -43.609375 C 42.070312 -43.304688 42.472656 -42.832031 42.671875 -42.1875 C 42.878906 -41.550781 42.984375 -40.710938 42.984375 -39.671875 C 42.984375 -38.640625 42.878906 -37.8125 42.671875 -37.1875 C 42.472656 -36.570312 42.132812 -36.144531 41.65625 -35.90625 C 40.9375 -35.539062 39.914062 -35.359375 38.59375 -35.359375 L 27.140625 -35.359375 L 27.140625 -5.15625 C 27.140625 -4.238281 27.109375 -3.5625 27.046875 -3.125 C 26.984375 -2.6875 26.800781 -2.175781 26.5 -1.59375 C 26.195312 -1.007812 25.664062 -0.597656 24.90625 -0.359375 C 24.144531 -0.117188 23.144531 0 21.90625 0 C 20.664062 0 19.675781 -0.117188 18.9375 -0.359375 C 18.195312 -0.597656 17.675781 -1.007812 17.375 -1.59375 C 17.070312 -2.175781 16.890625 -2.695312 16.828125 -3.15625 C 16.773438 -3.613281 16.75 -4.300781 16.75 -5.21875 L 16.75 -35.359375 L 5.21875 -35.359375 C 3.9375 -35.359375 2.992188 -35.507812 2.390625 -35.8125 C 1.796875 -36.113281 1.398438 -36.582031 1.203125 -37.21875 C 1.003906 -37.863281 0.90625 -38.703125 0.90625 -39.734375 C 0.90625 -40.773438 1.003906 -41.601562 1.203125 -42.21875 C 1.398438 -42.84375 1.738281 -43.273438 2.21875 -43.515625 C 2.9375 -43.878906 3.957031 -44.0625 5.28125 -44.0625 Z M 5.28125 -44.0625 "/></g></g></g><g fill="#ffffff" fill-opacity="1"><g transform="translate(625.889253, 171.551536)"><g><path d="M 23.046875 -44.546875 C 28.972656 -44.546875 34.113281 -42.40625 38.46875 -38.125 C 42.832031 -33.84375 45.015625 -28.53125 45.015625 -22.1875 C 45.015625 -15.84375 42.929688 -10.4375 38.765625 -5.96875 C 34.609375 -1.507812 29.488281 0.71875 23.40625 0.71875 C 17.320312 0.71875 12.148438 -1.476562 7.890625 -5.875 C 3.628906 -10.28125 1.5 -15.523438 1.5 -21.609375 C 1.5 -24.929688 2.097656 -28.039062 3.296875 -30.9375 C 4.503906 -33.84375 6.109375 -36.273438 8.109375 -38.234375 C 10.109375 -40.203125 12.40625 -41.742188 15 -42.859375 C 17.601562 -43.984375 20.285156 -44.546875 23.046875 -44.546875 Z M 12.125 -21.90625 C 12.125 -18.34375 13.273438 -15.453125 15.578125 -13.234375 C 17.878906 -11.015625 20.445312 -9.90625 23.28125 -9.90625 C 26.125 -9.90625 28.6875 -10.984375 30.96875 -13.140625 C 33.25 -15.304688 34.390625 -18.207031 34.390625 -21.84375 C 34.390625 -25.488281 33.238281 -28.410156 30.9375 -30.609375 C 28.644531 -32.816406 26.078125 -33.921875 23.234375 -33.921875 C 20.390625 -33.921875 17.828125 -32.804688 15.546875 -30.578125 C 13.265625 -28.359375 12.125 -25.46875 12.125 -21.90625 Z M 12.125 -21.90625 "/></g></g></g><g fill="#ffffff" fill-opacity="1"><g transform="translate(672.40991, 171.551536)"><g><path d="M 3.0625 -6.1875 C 2.019531 -7.46875 1.5 -8.617188 1.5 -9.640625 C 1.5 -10.660156 2.359375 -12.007812 4.078125 -13.6875 C 5.078125 -14.644531 6.132812 -15.125 7.25 -15.125 C 8.375 -15.125 9.941406 -14.125 11.953125 -12.125 C 12.503906 -11.445312 13.300781 -10.796875 14.34375 -10.171875 C 15.382812 -9.554688 16.347656 -9.25 17.234375 -9.25 C 20.953125 -9.25 22.8125 -10.769531 22.8125 -13.8125 C 22.8125 -14.726562 22.300781 -15.492188 21.28125 -16.109375 C 20.257812 -16.734375 18.988281 -17.1875 17.46875 -17.46875 C 15.945312 -17.75 14.304688 -18.195312 12.546875 -18.8125 C 10.785156 -19.4375 9.144531 -20.164062 7.625 -21 C 6.101562 -21.84375 4.832031 -23.175781 3.8125 -25 C 2.789062 -26.820312 2.28125 -29.015625 2.28125 -31.578125 C 2.28125 -35.097656 3.585938 -38.164062 6.203125 -40.78125 C 8.828125 -43.40625 12.398438 -44.71875 16.921875 -44.71875 C 19.328125 -44.71875 21.519531 -44.40625 23.5 -43.78125 C 25.476562 -43.164062 26.847656 -42.539062 27.609375 -41.90625 L 29.109375 -40.765625 C 30.347656 -39.597656 30.96875 -38.613281 30.96875 -37.8125 C 30.96875 -37.019531 30.488281 -35.921875 29.53125 -34.515625 C 28.175781 -32.515625 26.773438 -31.515625 25.328125 -31.515625 C 24.492188 -31.515625 23.457031 -31.914062 22.21875 -32.71875 C 22.09375 -32.800781 21.859375 -33 21.515625 -33.3125 C 21.179688 -33.632812 20.875 -33.894531 20.59375 -34.09375 C 19.75 -34.613281 18.675781 -34.875 17.375 -34.875 C 16.070312 -34.875 14.988281 -34.5625 14.125 -33.9375 C 13.269531 -33.320312 12.84375 -32.460938 12.84375 -31.359375 C 12.84375 -30.265625 13.351562 -29.375 14.375 -28.6875 C 15.394531 -28.007812 16.664062 -27.550781 18.1875 -27.3125 C 19.707031 -27.070312 21.367188 -26.703125 23.171875 -26.203125 C 24.972656 -25.703125 26.632812 -25.09375 28.15625 -24.375 C 29.675781 -23.65625 30.945312 -22.40625 31.96875 -20.625 C 32.988281 -18.84375 33.5 -16.648438 33.5 -14.046875 C 33.5 -11.441406 32.976562 -9.148438 31.9375 -7.171875 C 30.894531 -5.191406 29.535156 -3.660156 27.859375 -2.578125 C 24.609375 -0.460938 21.144531 0.59375 17.46875 0.59375 C 15.582031 0.59375 13.800781 0.363281 12.125 -0.09375 C 10.445312 -0.550781 9.085938 -1.117188 8.046875 -1.796875 C 5.921875 -3.078125 4.441406 -4.316406 3.609375 -5.515625 Z M 3.0625 -6.1875 "/></g></g></g><g fill="#ffffff" fill-opacity="1"><g transform="translate(148.603655, 108.617012)"><g><path d="M 4.78125 0 C 4.351562 0 3.992188 -0.144531 3.703125 -0.4375 C 3.410156 -0.726562 3.265625 -1.085938 3.265625 -1.515625 L 3.265625 -21.953125 C 3.265625 -22.378906 3.410156 -22.742188 3.703125 -23.046875 C 3.992188 -23.347656 4.351562 -23.5 4.78125 -23.5 L 12.734375 -23.5 C 15.128906 -23.5 16.984375 -22.945312 18.296875 -21.84375 C 19.609375 -20.75 20.265625 -19.269531 20.265625 -17.40625 C 20.265625 -16.101562 19.957031 -15.019531 19.34375 -14.15625 C 18.726562 -13.289062 17.9375 -12.644531 16.96875 -12.21875 C 18.3125 -11.789062 19.414062 -11.101562 20.28125 -10.15625 C 21.144531 -9.21875 21.578125 -8.03125 21.578125 -6.59375 C 21.578125 -4.53125 20.878906 -2.914062 19.484375 -1.75 C 18.097656 -0.582031 15.914062 0 12.9375 0 Z M 11.921875 -13.328125 C 13.921875 -13.328125 15.320312 -13.664062 16.125 -14.34375 C 16.9375 -15.019531 17.34375 -15.960938 17.34375 -17.171875 C 17.34375 -18.222656 16.910156 -19.0625 16.046875 -19.6875 C 15.179688 -20.320312 14 -20.640625 12.5 -20.640625 L 6.328125 -20.640625 L 6.328125 -13.328125 Z M 12.625 -2.859375 C 14.800781 -2.859375 16.34375 -3.191406 17.25 -3.859375 C 18.164062 -4.535156 18.625 -5.492188 18.625 -6.734375 C 18.625 -9.296875 16.632812 -10.578125 12.65625 -10.578125 L 6.328125 -10.578125 L 6.328125 -2.859375 Z M 12.625 -2.859375 "/></g></g></g><g fill="#ffffff" fill-opacity="1"><g transform="translate(171.938547, 108.617012)"><g><path d="M 4.78125 0.171875 C 4.351562 0.171875 3.992188 0.0234375 3.703125 -0.265625 C 3.410156 -0.554688 3.265625 -0.914062 3.265625 -1.34375 L 3.265625 -22.125 C 3.265625 -22.550781 3.410156 -22.914062 3.703125 -23.21875 C 3.992188 -23.519531 4.351562 -23.671875 4.78125 -23.671875 C 5.207031 -23.671875 5.570312 -23.519531 5.875 -23.21875 C 6.175781 -22.914062 6.328125 -22.550781 6.328125 -22.125 L 6.328125 -1.34375 C 6.328125 -0.914062 6.175781 -0.554688 5.875 -0.265625 C 5.570312 0.0234375 5.207031 0.171875 4.78125 0.171875 Z M 4.78125 0.171875 "/></g></g></g><g fill="#ffffff" fill-opacity="1"><g transform="translate(181.535147, 108.617012)"><g><path d="M 4.78125 0 C 4.351562 0 3.992188 -0.144531 3.703125 -0.4375 C 3.410156 -0.726562 3.265625 -1.085938 3.265625 -1.515625 L 3.265625 -21.953125 C 3.265625 -22.378906 3.410156 -22.742188 3.703125 -23.046875 C 3.992188 -23.347656 4.351562 -23.5 4.78125 -23.5 L 18.28125 -23.5 C 18.6875 -23.5 19.03125 -23.359375 19.3125 -23.078125 C 19.59375 -22.796875 19.734375 -22.457031 19.734375 -22.0625 C 19.734375 -21.65625 19.59375 -21.316406 19.3125 -21.046875 C 19.03125 -20.773438 18.6875 -20.640625 18.28125 -20.640625 L 6.328125 -20.640625 L 6.328125 -13.203125 L 17.078125 -13.203125 C 17.472656 -13.203125 17.8125 -13.0625 18.09375 -12.78125 C 18.375 -12.5 18.515625 -12.15625 18.515625 -11.75 C 18.515625 -11.34375 18.375 -11.003906 18.09375 -10.734375 C 17.8125 -10.472656 17.472656 -10.34375 17.078125 -10.34375 L 6.328125 -10.34375 L 6.328125 -2.859375 L 18.28125 -2.859375 C 18.6875 -2.859375 19.03125 -2.71875 19.3125 -2.4375 C 19.59375 -2.15625 19.734375 -1.816406 19.734375 -1.421875 C 19.734375 -1.015625 19.59375 -0.675781 19.3125 -0.40625 C 19.03125 -0.132812 18.6875 0 18.28125 0 Z M 4.78125 0 "/></g></g></g><g fill="#ffffff" fill-opacity="1"><g transform="translate(203.018065, 108.617012)"><g><path d="M 4.78125 0.171875 C 4.351562 0.171875 3.992188 0.0234375 3.703125 -0.265625 C 3.410156 -0.554688 3.265625 -0.914062 3.265625 -1.34375 L 3.265625 -21.453125 C 3.265625 -22.054688 3.476562 -22.578125 3.90625 -23.015625 C 4.332031 -23.453125 4.847656 -23.671875 5.453125 -23.671875 L 5.890625 -23.671875 C 6.609375 -23.671875 7.226562 -23.332031 7.75 -22.65625 L 20.703125 -3.9375 L 20.703125 -22.125 C 20.703125 -22.550781 20.847656 -22.914062 21.140625 -23.21875 C 21.429688 -23.519531 21.789062 -23.671875 22.21875 -23.671875 C 22.644531 -23.671875 23.007812 -23.519531 23.3125 -23.21875 C 23.613281 -22.914062 23.765625 -22.550781 23.765625 -22.125 L 23.765625 -2.015625 C 23.765625 -1.410156 23.546875 -0.894531 23.109375 -0.46875 C 22.671875 -0.0390625 22.148438 0.171875 21.546875 0.171875 L 21.140625 0.171875 C 20.785156 0.171875 20.453125 0.0859375 20.140625 -0.078125 C 19.828125 -0.253906 19.566406 -0.472656 19.359375 -0.734375 L 6.328125 -19.5625 L 6.328125 -1.34375 C 6.328125 -0.914062 6.175781 -0.554688 5.875 -0.265625 C 5.570312 0.0234375 5.207031 0.171875 4.78125 0.171875 Z M 4.78125 0.171875 "/></g></g></g><g fill="#ffffff" fill-opacity="1"><g transform="translate(230.056905, 108.617012)"><g><path d="M 11.3125 0.171875 C 10.394531 0.171875 9.695312 -0.34375 9.21875 -1.375 L 0.90625 -21.546875 C 0.84375 -21.722656 0.8125 -21.914062 0.8125 -22.125 C 0.8125 -22.59375 0.941406 -22.96875 1.203125 -23.25 C 1.472656 -23.53125 1.847656 -23.671875 2.328125 -23.671875 C 2.640625 -23.671875 2.921875 -23.570312 3.171875 -23.375 C 3.429688 -23.1875 3.628906 -22.9375 3.765625 -22.625 L 11.6875 -2.890625 L 19.59375 -22.625 C 19.726562 -22.9375 19.925781 -23.1875 20.1875 -23.375 C 20.445312 -23.570312 20.734375 -23.671875 21.046875 -23.671875 C 21.515625 -23.671875 21.882812 -23.53125 22.15625 -23.25 C 22.425781 -22.96875 22.5625 -22.59375 22.5625 -22.125 C 22.5625 -21.914062 22.523438 -21.722656 22.453125 -21.546875 L 14.140625 -1.375 C 13.671875 -0.34375 12.972656 0.171875 12.046875 0.171875 Z M 11.3125 0.171875 "/></g></g></g><g fill="#ffffff" fill-opacity="1"><g transform="translate(253.425467, 108.617012)"><g><path d="M 4.78125 0 C 4.351562 0 3.992188 -0.144531 3.703125 -0.4375 C 3.410156 -0.726562 3.265625 -1.085938 3.265625 -1.515625 L 3.265625 -21.953125 C 3.265625 -22.378906 3.410156 -22.742188 3.703125 -23.046875 C 3.992188 -23.347656 4.351562 -23.5 4.78125 -23.5 L 18.28125 -23.5 C 18.6875 -23.5 19.03125 -23.359375 19.3125 -23.078125 C 19.59375 -22.796875 19.734375 -22.457031 19.734375 -22.0625 C 19.734375 -21.65625 19.59375 -21.316406 19.3125 -21.046875 C 19.03125 -20.773438 18.6875 -20.640625 18.28125 -20.640625 L 6.328125 -20.640625 L 6.328125 -13.203125 L 17.078125 -13.203125 C 17.472656 -13.203125 17.8125 -13.0625 18.09375 -12.78125 C 18.375 -12.5 18.515625 -12.15625 18.515625 -11.75 C 18.515625 -11.34375 18.375 -11.003906 18.09375 -10.734375 C 17.8125 -10.472656 17.472656 -10.34375 17.078125 -10.34375 L 6.328125 -10.34375 L 6.328125 -2.859375 L 18.28125 -2.859375 C 18.6875 -2.859375 19.03125 -2.71875 19.3125 -2.4375 C 19.59375 -2.15625 19.734375 -1.816406 19.734375 -1.421875 C 19.734375 -1.015625 19.59375 -0.675781 19.3125 -0.40625 C 19.03125 -0.132812 18.6875 0 18.28125 0 Z M 4.78125 0 "/></g></g></g><g fill="#ffffff" fill-opacity="1"><g transform="translate(274.908384, 108.617012)"><g><path d="M 4.78125 0.171875 C 4.351562 0.171875 3.992188 0.0234375 3.703125 -0.265625 C 3.410156 -0.554688 3.265625 -0.914062 3.265625 -1.34375 L 3.265625 -21.453125 C 3.265625 -22.054688 3.476562 -22.578125 3.90625 -23.015625 C 4.332031 -23.453125 4.847656 -23.671875 5.453125 -23.671875 L 5.890625 -23.671875 C 6.609375 -23.671875 7.226562 -23.332031 7.75 -22.65625 L 20.703125 -3.9375 L 20.703125 -22.125 C 20.703125 -22.550781 20.847656 -22.914062 21.140625 -23.21875 C 21.429688 -23.519531 21.789062 -23.671875 22.21875 -23.671875 C 22.644531 -23.671875 23.007812 -23.519531 23.3125 -23.21875 C 23.613281 -22.914062 23.765625 -22.550781 23.765625 -22.125 L 23.765625 -2.015625 C 23.765625 -1.410156 23.546875 -0.894531 23.109375 -0.46875 C 22.671875 -0.0390625 22.148438 0.171875 21.546875 0.171875 L 21.140625 0.171875 C 20.785156 0.171875 20.453125 0.0859375 20.140625 -0.078125 C 19.828125 -0.253906 19.566406 -0.472656 19.359375 -0.734375 L 6.328125 -19.5625 L 6.328125 -1.34375 C 6.328125 -0.914062 6.175781 -0.554688 5.875 -0.265625 C 5.570312 0.0234375 5.207031 0.171875 4.78125 0.171875 Z M 4.78125 0.171875 "/></g></g></g><g fill="#ffffff" fill-opacity="1"><g transform="translate(301.947224, 108.617012)"><g><path d="M 4.78125 0.171875 C 4.351562 0.171875 3.992188 0.0234375 3.703125 -0.265625 C 3.410156 -0.554688 3.265625 -0.914062 3.265625 -1.34375 L 3.265625 -22.125 C 3.265625 -22.550781 3.410156 -22.914062 3.703125 -23.21875 C 3.992188 -23.519531 4.351562 -23.671875 4.78125 -23.671875 C 5.207031 -23.671875 5.570312 -23.519531 5.875 -23.21875 C 6.175781 -22.914062 6.328125 -22.550781 6.328125 -22.125 L 6.328125 -1.34375 C 6.328125 -0.914062 6.175781 -0.554688 5.875 -0.265625 C 5.570312 0.0234375 5.207031 0.171875 4.78125 0.171875 Z M 4.78125 0.171875 "/></g></g></g><g fill="#ffffff" fill-opacity="1"><g transform="translate(311.543816, 108.617012)"><g><path d="M 4.78125 0 C 4.351562 0 3.992188 -0.144531 3.703125 -0.4375 C 3.410156 -0.726562 3.265625 -1.085938 3.265625 -1.515625 L 3.265625 -21.953125 C 3.265625 -22.378906 3.410156 -22.742188 3.703125 -23.046875 C 3.992188 -23.347656 4.351562 -23.5 4.78125 -23.5 L 11.546875 -23.5 C 14.109375 -23.5 16.28125 -22.929688 18.0625 -21.796875 C 19.84375 -20.671875 21.179688 -19.207031 22.078125 -17.40625 C 22.984375 -15.613281 23.4375 -13.726562 23.4375 -11.75 C 23.4375 -9.769531 22.984375 -7.882812 22.078125 -6.09375 C 21.179688 -4.300781 19.84375 -2.835938 18.0625 -1.703125 C 16.28125 -0.566406 14.109375 0 11.546875 0 Z M 11.171875 -2.859375 C 13.015625 -2.859375 14.628906 -3.234375 16.015625 -3.984375 C 17.410156 -4.742188 18.488281 -5.789062 19.25 -7.125 C 20.019531 -8.457031 20.40625 -10 20.40625 -11.75 C 20.40625 -13.5 20.019531 -15.039062 19.25 -16.375 C 18.488281 -17.71875 17.410156 -18.765625 16.015625 -19.515625 C 14.628906 -20.265625 13.015625 -20.640625 11.171875 -20.640625 L 6.328125 -20.640625 L 6.328125 -2.859375 Z M 11.171875 -2.859375 "/></g></g></g><g fill="#ffffff" fill-opacity="1"><g transform="translate(336.831702, 108.617012)"><g><path d="M 13.671875 0.34375 C 11.316406 0.34375 9.25 -0.171875 7.46875 -1.203125 C 5.695312 -2.242188 4.328125 -3.671875 3.359375 -5.484375 C 2.398438 -7.304688 1.898438 -9.394531 1.859375 -11.75 C 1.898438 -14.101562 2.398438 -16.1875 3.359375 -18 C 4.328125 -19.820312 5.695312 -21.25 7.46875 -22.28125 C 9.25 -23.320312 11.316406 -23.84375 13.671875 -23.84375 C 16.023438 -23.84375 18.082031 -23.320312 19.84375 -22.28125 C 21.613281 -21.25 22.984375 -19.816406 23.953125 -17.984375 C 24.929688 -16.160156 25.441406 -14.082031 25.484375 -11.75 C 25.441406 -9.414062 24.929688 -7.332031 23.953125 -5.5 C 22.984375 -3.675781 21.613281 -2.242188 19.84375 -1.203125 C 18.082031 -0.171875 16.023438 0.34375 13.671875 0.34375 Z M 13.671875 -2.53125 C 15.460938 -2.53125 17.019531 -2.929688 18.34375 -3.734375 C 19.675781 -4.546875 20.6875 -5.644531 21.375 -7.03125 C 22.070312 -8.425781 22.421875 -10 22.421875 -11.75 C 22.421875 -13.5 22.070312 -15.066406 21.375 -16.453125 C 20.6875 -17.847656 19.675781 -18.953125 18.34375 -19.765625 C 17.019531 -20.578125 15.460938 -20.984375 13.671875 -20.984375 C 11.847656 -20.984375 10.28125 -20.578125 8.96875 -19.765625 C 7.65625 -18.953125 6.648438 -17.847656 5.953125 -16.453125 C 5.265625 -15.066406 4.921875 -13.5 4.921875 -11.75 C 4.921875 -10 5.265625 -8.425781 5.953125 -7.03125 C 6.648438 -5.644531 7.65625 -4.546875 8.96875 -3.734375 C 10.28125 -2.929688 11.847656 -2.53125 13.671875 -2.53125 Z M 13.671875 -2.53125 "/></g></g></g><g fill="#ffffff" fill-opacity="1"><g transform="translate(364.173602, 108.617012)"><g><path d="M 10.671875 0.34375 C 7.816406 0.34375 5.144531 -0.195312 2.65625 -1.28125 C 2.382812 -1.394531 2.160156 -1.578125 1.984375 -1.828125 C 1.804688 -2.085938 1.71875 -2.363281 1.71875 -2.65625 C 1.71875 -3.039062 1.84375 -3.375 2.09375 -3.65625 C 2.351562 -3.9375 2.6875 -4.078125 3.09375 -4.078125 C 3.320312 -4.078125 3.535156 -4.03125 3.734375 -3.9375 C 5.796875 -3.019531 8.007812 -2.5625 10.375 -2.5625 C 14.300781 -2.5625 16.265625 -3.851562 16.265625 -6.4375 C 16.265625 -7.101562 16.007812 -7.660156 15.5 -8.109375 C 15 -8.554688 14.378906 -8.910156 13.640625 -9.171875 C 12.898438 -9.429688 11.84375 -9.738281 10.46875 -10.09375 C 8.65625 -10.570312 7.1875 -11.03125 6.0625 -11.46875 C 4.9375 -11.90625 3.96875 -12.5625 3.15625 -13.4375 C 2.351562 -14.3125 1.953125 -15.476562 1.953125 -16.9375 C 1.953125 -18.21875 2.285156 -19.378906 2.953125 -20.421875 C 3.628906 -21.460938 4.625 -22.289062 5.9375 -22.90625 C 7.25 -23.53125 8.828125 -23.84375 10.671875 -23.84375 C 13.140625 -23.84375 15.375 -23.472656 17.375 -22.734375 C 18 -22.503906 18.3125 -22.050781 18.3125 -21.375 C 18.3125 -21.019531 18.1875 -20.695312 17.9375 -20.40625 C 17.695312 -20.113281 17.375 -19.96875 16.96875 -19.96875 C 16.832031 -19.96875 16.65625 -20.015625 16.4375 -20.109375 C 14.6875 -20.710938 12.878906 -21.015625 11.015625 -21.015625 C 9.234375 -21.015625 7.785156 -20.675781 6.671875 -20 C 5.566406 -19.320312 5.015625 -18.378906 5.015625 -17.171875 C 5.015625 -16.359375 5.273438 -15.695312 5.796875 -15.1875 C 6.328125 -14.6875 6.988281 -14.296875 7.78125 -14.015625 C 8.582031 -13.742188 9.671875 -13.445312 11.046875 -13.125 C 12.816406 -12.707031 14.242188 -12.285156 15.328125 -11.859375 C 16.421875 -11.429688 17.351562 -10.765625 18.125 -9.859375 C 18.90625 -8.960938 19.296875 -7.753906 19.296875 -6.234375 C 19.296875 -4.972656 18.9375 -3.84375 18.21875 -2.84375 C 17.5 -1.84375 16.488281 -1.0625 15.1875 -0.5 C 13.882812 0.0625 12.378906 0.34375 10.671875 0.34375 Z M 10.671875 0.34375 "/></g></g></g><g fill="#ffffff" fill-opacity="1"><g transform="translate(384.915717, 108.617012)"><g/></g></g><g fill="#ffffff" fill-opacity="1"><g transform="translate(393.670503, 108.617012)"><g><path d="M 3.203125 0.171875 C 2.753906 0.171875 2.390625 0.0234375 2.109375 -0.265625 C 1.828125 -0.554688 1.6875 -0.914062 1.6875 -1.34375 C 1.6875 -1.519531 1.742188 -1.742188 1.859375 -2.015625 L 10.4375 -22.296875 C 10.613281 -22.691406 10.863281 -23.019531 11.1875 -23.28125 C 11.519531 -23.539062 11.921875 -23.671875 12.390625 -23.671875 L 12.734375 -23.671875 C 13.203125 -23.671875 13.597656 -23.539062 13.921875 -23.28125 C 14.242188 -23.019531 14.5 -22.691406 14.6875 -22.296875 L 23.265625 -2.015625 C 23.378906 -1.742188 23.4375 -1.519531 23.4375 -1.34375 C 23.4375 -0.914062 23.296875 -0.554688 23.015625 -0.265625 C 22.734375 0.0234375 22.367188 0.171875 21.921875 0.171875 C 21.609375 0.171875 21.320312 0.0859375 21.0625 -0.078125 C 20.800781 -0.253906 20.601562 -0.488281 20.46875 -0.78125 L 18.28125 -6.03125 L 6.828125 -6.03125 L 4.640625 -0.78125 C 4.503906 -0.488281 4.304688 -0.253906 4.046875 -0.078125 C 3.796875 0.0859375 3.515625 0.171875 3.203125 0.171875 Z M 8.015625 -8.828125 L 17.109375 -8.828125 L 12.5625 -19.765625 Z M 8.015625 -8.828125 "/></g></g></g><g fill="#ffffff" fill-opacity="1"><g transform="translate(603.417577, 190.530414)"><g><path d="M 2.015625 0.046875 C 1.765625 0.046875 1.550781 -0.0390625 1.375 -0.21875 C 1.195312 -0.394531 1.109375 -0.609375 1.109375 -0.859375 L 1.109375 -0.953125 C 1.109375 -1.203125 1.195312 -1.414062 1.375 -1.59375 C 1.550781 -1.769531 1.765625 -1.859375 2.015625 -1.859375 L 2.171875 -1.859375 C 2.421875 -1.859375 2.632812 -1.769531 2.8125 -1.59375 C 2.988281 -1.414062 3.078125 -1.203125 3.078125 -0.953125 L 3.078125 -0.859375 C 3.078125 -0.609375 2.988281 -0.394531 2.8125 -0.21875 C 2.632812 -0.0390625 2.421875 0.046875 2.171875 0.046875 Z M 2.015625 0.046875 "/></g></g></g><g fill="#ffffff" fill-opacity="1"><g transform="translate(607.604257, 190.530414)"><g><path d="M 2.015625 0.046875 C 1.765625 0.046875 1.550781 -0.0390625 1.375 -0.21875 C 1.195312 -0.394531 1.109375 -0.609375 1.109375 -0.859375 L 1.109375 -0.953125 C 1.109375 -1.203125 1.195312 -1.414062 1.375 -1.59375 C 1.550781 -1.769531 1.765625 -1.859375 2.015625 -1.859375 L 2.171875 -1.859375 C 2.421875 -1.859375 2.632812 -1.769531 2.8125 -1.59375 C 2.988281 -1.414062 3.078125 -1.203125 3.078125 -0.953125 L 3.078125 -0.859375 C 3.078125 -0.609375 2.988281 -0.394531 2.8125 -0.21875 C 2.632812 -0.0390625 2.421875 0.046875 2.171875 0.046875 Z M 2.015625 0.046875 "/></g></g></g><g fill="#ffffff" fill-opacity="1"><g transform="translate(611.790937, 190.530414)"><g><path d="M 2.015625 0.046875 C 1.765625 0.046875 1.550781 -0.0390625 1.375 -0.21875 C 1.195312 -0.394531 1.109375 -0.609375 1.109375 -0.859375 L 1.109375 -0.953125 C 1.109375 -1.203125 1.195312 -1.414062 1.375 -1.59375 C 1.550781 -1.769531 1.765625 -1.859375 2.015625 -1.859375 L 2.171875 -1.859375 C 2.421875 -1.859375 2.632812 -1.769531 2.8125 -1.59375 C 2.988281 -1.414062 3.078125 -1.203125 3.078125 -0.953125 L 3.078125 -0.859375 C 3.078125 -0.609375 2.988281 -0.394531 2.8125 -0.21875 C 2.632812 -0.0390625 2.421875 0.046875 2.171875 0.046875 Z M 2.015625 0.046875 "/></g></g></g><g fill="#ffffff" fill-opacity="1"><g transform="translate(615.977616, 190.530414)"><g><path d="M 2 0.078125 C 1.789062 0.078125 1.613281 0.0078125 1.46875 -0.125 C 1.332031 -0.269531 1.265625 -0.441406 1.265625 -0.640625 L 1.265625 -11.09375 C 1.265625 -11.300781 1.332031 -11.476562 1.46875 -11.625 C 1.613281 -11.769531 1.789062 -11.84375 2 -11.84375 C 2.207031 -11.84375 2.378906 -11.769531 2.515625 -11.625 C 2.660156 -11.488281 2.734375 -11.3125 2.734375 -11.09375 L 2.734375 -0.640625 C 2.734375 -0.441406 2.660156 -0.269531 2.515625 -0.125 C 2.367188 0.0078125 2.195312 0.078125 2 0.078125 Z M 2 0.078125 "/></g></g></g><g fill="#ffffff" fill-opacity="1"><g transform="translate(619.987171, 190.530414)"><g><path d="M 4.890625 0.15625 C 4.066406 0.15625 3.34375 -0.0195312 2.71875 -0.375 C 2.09375 -0.726562 1.609375 -1.226562 1.265625 -1.875 C 0.929688 -2.519531 0.765625 -3.265625 0.765625 -4.109375 C 0.765625 -4.941406 0.929688 -5.679688 1.265625 -6.328125 C 1.609375 -6.984375 2.09375 -7.488281 2.71875 -7.84375 C 3.34375 -8.195312 4.066406 -8.375 4.890625 -8.375 C 5.710938 -8.375 6.429688 -8.195312 7.046875 -7.84375 C 7.671875 -7.488281 8.15625 -6.984375 8.5 -6.328125 C 8.84375 -5.679688 9.015625 -4.941406 9.015625 -4.109375 C 9.015625 -3.265625 8.84375 -2.519531 8.5 -1.875 C 8.15625 -1.226562 7.671875 -0.726562 7.046875 -0.375 C 6.429688 -0.0195312 5.710938 0.15625 4.890625 0.15625 Z M 4.890625 -1.171875 C 5.335938 -1.171875 5.757812 -1.269531 6.15625 -1.46875 C 6.5625 -1.675781 6.894531 -2 7.15625 -2.4375 C 7.425781 -2.882812 7.5625 -3.445312 7.5625 -4.125 C 7.5625 -4.789062 7.425781 -5.34375 7.15625 -5.78125 C 6.894531 -6.21875 6.5625 -6.535156 6.15625 -6.734375 C 5.757812 -6.941406 5.335938 -7.046875 4.890625 -7.046875 C 4.441406 -7.046875 4.015625 -6.941406 3.609375 -6.734375 C 3.210938 -6.535156 2.882812 -6.21875 2.625 -5.78125 C 2.363281 -5.34375 2.234375 -4.789062 2.234375 -4.125 C 2.234375 -3.445312 2.363281 -2.882812 2.625 -2.4375 C 2.882812 -2 3.210938 -1.675781 3.609375 -1.46875 C 4.015625 -1.269531 4.441406 -1.171875 4.890625 -1.171875 Z M 4.890625 -1.171875 "/></g></g></g><g fill="#ffffff" fill-opacity="1"><g transform="translate(629.777568, 190.530414)"><g/></g></g><g fill="#ffffff" fill-opacity="1"><g transform="translate(633.964248, 190.530414)"><g><path d="M 2 0.078125 C 1.789062 0.078125 1.613281 0.0078125 1.46875 -0.125 C 1.332031 -0.269531 1.265625 -0.441406 1.265625 -0.640625 L 1.265625 -7.5625 C 1.265625 -7.757812 1.332031 -7.929688 1.46875 -8.078125 C 1.613281 -8.222656 1.789062 -8.296875 2 -8.296875 C 2.195312 -8.296875 2.367188 -8.222656 2.515625 -8.078125 C 2.660156 -7.929688 2.734375 -7.757812 2.734375 -7.5625 L 2.734375 -6.890625 C 3.035156 -7.328125 3.398438 -7.679688 3.828125 -7.953125 C 4.253906 -8.234375 4.804688 -8.375 5.484375 -8.375 C 6.078125 -8.375 6.585938 -8.210938 7.015625 -7.890625 C 7.453125 -7.566406 7.757812 -7.175781 7.9375 -6.71875 C 8.601562 -7.820312 9.59375 -8.375 10.90625 -8.375 C 11.507812 -8.375 12.007812 -8.222656 12.40625 -7.921875 C 12.8125 -7.617188 13.109375 -7.234375 13.296875 -6.765625 C 13.492188 -6.296875 13.59375 -5.800781 13.59375 -5.28125 L 13.59375 -0.640625 C 13.59375 -0.441406 13.519531 -0.269531 13.375 -0.125 C 13.226562 0.0078125 13.054688 0.078125 12.859375 0.078125 C 12.648438 0.078125 12.472656 0.0078125 12.328125 -0.125 C 12.191406 -0.269531 12.125 -0.441406 12.125 -0.640625 L 12.125 -5 C 12.125 -5.695312 12 -6.207031 11.75 -6.53125 C 11.507812 -6.863281 11.085938 -7.03125 10.484375 -7.03125 C 9.941406 -7.03125 9.488281 -6.882812 9.125 -6.59375 C 8.769531 -6.3125 8.453125 -5.941406 8.171875 -5.484375 L 8.171875 -0.640625 C 8.171875 -0.441406 8.097656 -0.269531 7.953125 -0.125 C 7.804688 0.0078125 7.628906 0.078125 7.421875 0.078125 C 7.222656 0.078125 7.050781 0.0078125 6.90625 -0.125 C 6.769531 -0.269531 6.703125 -0.441406 6.703125 -0.640625 L 6.703125 -5 C 6.703125 -5.695312 6.578125 -6.207031 6.328125 -6.53125 C 6.078125 -6.863281 5.65625 -7.03125 5.0625 -7.03125 C 4.507812 -7.03125 4.050781 -6.882812 3.6875 -6.59375 C 3.332031 -6.3125 3.015625 -5.941406 2.734375 -5.484375 L 2.734375 -0.640625 C 2.734375 -0.441406 2.660156 -0.269531 2.515625 -0.125 C 2.367188 0.0078125 2.195312 0.078125 2 0.078125 Z M 2 0.078125 "/></g></g></g><g fill="#ffffff" fill-opacity="1"><g transform="translate(648.746453, 190.530414)"><g><path d="M 4.953125 0.15625 C 3.640625 0.15625 2.613281 -0.210938 1.875 -0.953125 C 1.132812 -1.703125 0.765625 -2.753906 0.765625 -4.109375 C 0.765625 -4.867188 0.90625 -5.570312 1.1875 -6.21875 C 1.46875 -6.863281 1.894531 -7.382812 2.46875 -7.78125 C 3.050781 -8.175781 3.769531 -8.375 4.625 -8.375 C 5.414062 -8.375 6.101562 -8.1875 6.6875 -7.8125 C 7.269531 -7.445312 7.707031 -6.953125 8 -6.328125 C 8.300781 -5.710938 8.453125 -5.039062 8.453125 -4.3125 C 8.453125 -4.113281 8.382812 -3.941406 8.25 -3.796875 C 8.125 -3.660156 7.945312 -3.59375 7.71875 -3.59375 L 2.25 -3.59375 C 2.34375 -2.84375 2.625 -2.253906 3.09375 -1.828125 C 3.5625 -1.410156 4.222656 -1.203125 5.078125 -1.203125 C 5.523438 -1.203125 5.914062 -1.242188 6.25 -1.328125 C 6.59375 -1.421875 6.925781 -1.546875 7.25 -1.703125 C 7.332031 -1.742188 7.429688 -1.765625 7.546875 -1.765625 C 7.710938 -1.765625 7.859375 -1.707031 7.984375 -1.59375 C 8.117188 -1.476562 8.1875 -1.328125 8.1875 -1.140625 C 8.1875 -0.910156 8.046875 -0.710938 7.765625 -0.546875 C 7.347656 -0.304688 6.929688 -0.128906 6.515625 -0.015625 C 6.109375 0.0976562 5.585938 0.15625 4.953125 0.15625 Z M 7 -4.78125 C 6.96875 -5.3125 6.832031 -5.753906 6.59375 -6.109375 C 6.351562 -6.460938 6.054688 -6.722656 5.703125 -6.890625 C 5.347656 -7.054688 4.988281 -7.140625 4.625 -7.140625 C 4.257812 -7.140625 3.898438 -7.054688 3.546875 -6.890625 C 3.191406 -6.722656 2.894531 -6.460938 2.65625 -6.109375 C 2.414062 -5.753906 2.28125 -5.3125 2.25 -4.78125 Z M 7 -4.78125 "/></g></g></g><g fill="#ffffff" fill-opacity="1"><g transform="translate(657.86054, 190.530414)"><g><path d="M 2.046875 -9.890625 C 1.816406 -9.890625 1.617188 -9.96875 1.453125 -10.125 C 1.296875 -10.289062 1.21875 -10.488281 1.21875 -10.71875 L 1.21875 -10.78125 C 1.21875 -11 1.296875 -11.1875 1.453125 -11.34375 C 1.617188 -11.507812 1.816406 -11.59375 2.046875 -11.59375 L 2.140625 -11.59375 C 2.367188 -11.59375 2.5625 -11.507812 2.71875 -11.34375 C 2.882812 -11.1875 2.96875 -11 2.96875 -10.78125 L 2.96875 -10.71875 C 2.96875 -10.488281 2.882812 -10.289062 2.71875 -10.125 C 2.5625 -9.96875 2.367188 -9.890625 2.140625 -9.890625 Z M 0.703125 3.859375 C 0.316406 3.859375 -0.0195312 3.8125 -0.3125 3.71875 C -0.4375 3.675781 -0.535156 3.601562 -0.609375 3.5 C -0.679688 3.394531 -0.71875 3.273438 -0.71875 3.140625 C -0.71875 2.984375 -0.660156 2.84375 -0.546875 2.71875 C -0.429688 2.59375 -0.285156 2.53125 -0.109375 2.53125 C -0.046875 2.53125 0.03125 2.535156 0.125 2.546875 C 0.226562 2.566406 0.3125 2.578125 0.375 2.578125 C 0.707031 2.578125 0.953125 2.515625 1.109375 2.390625 C 1.273438 2.273438 1.359375 2.019531 1.359375 1.625 L 1.359375 -7.546875 C 1.359375 -7.742188 1.425781 -7.914062 1.5625 -8.0625 C 1.695312 -8.207031 1.867188 -8.28125 2.078125 -8.28125 C 2.296875 -8.28125 2.472656 -8.207031 2.609375 -8.0625 C 2.742188 -7.925781 2.8125 -7.753906 2.8125 -7.546875 L 2.8125 1.65625 C 2.8125 2.320312 2.640625 2.851562 2.296875 3.25 C 1.960938 3.65625 1.429688 3.859375 0.703125 3.859375 Z M 0.703125 3.859375 "/></g></g></g><g fill="#ffffff" fill-opacity="1"><g transform="translate(661.950606, 190.530414)"><g><path d="M 4.890625 0.15625 C 4.066406 0.15625 3.34375 -0.0195312 2.71875 -0.375 C 2.09375 -0.726562 1.609375 -1.226562 1.265625 -1.875 C 0.929688 -2.519531 0.765625 -3.265625 0.765625 -4.109375 C 0.765625 -4.941406 0.929688 -5.679688 1.265625 -6.328125 C 1.609375 -6.984375 2.09375 -7.488281 2.71875 -7.84375 C 3.34375 -8.195312 4.066406 -8.375 4.890625 -8.375 C 5.710938 -8.375 6.429688 -8.195312 7.046875 -7.84375 C 7.671875 -7.488281 8.15625 -6.984375 8.5 -6.328125 C 8.84375 -5.679688 9.015625 -4.941406 9.015625 -4.109375 C 9.015625 -3.265625 8.84375 -2.519531 8.5 -1.875 C 8.15625 -1.226562 7.671875 -0.726562 7.046875 -0.375 C 6.429688 -0.0195312 5.710938 0.15625 4.890625 0.15625 Z M 4.890625 -1.171875 C 5.335938 -1.171875 5.757812 -1.269531 6.15625 -1.46875 C 6.5625 -1.675781 6.894531 -2 7.15625 -2.4375 C 7.425781 -2.882812 7.5625 -3.445312 7.5625 -4.125 C 7.5625 -4.789062 7.425781 -5.34375 7.15625 -5.78125 C 6.894531 -6.21875 6.5625 -6.535156 6.15625 -6.734375 C 5.757812 -6.941406 5.335938 -7.046875 4.890625 -7.046875 C 4.441406 -7.046875 4.015625 -6.941406 3.609375 -6.734375 C 3.210938 -6.535156 2.882812 -6.21875 2.625 -5.78125 C 2.363281 -5.34375 2.234375 -4.789062 2.234375 -4.125 C 2.234375 -3.445312 2.363281 -2.882812 2.625 -2.4375 C 2.882812 -2 3.210938 -1.675781 3.609375 -1.46875 C 4.015625 -1.269531 4.441406 -1.171875 4.890625 -1.171875 Z M 4.890625 -1.171875 "/></g></g></g><g fill="#ffffff" fill-opacity="1"><g transform="translate(671.741003, 190.530414)"><g><path d="M 2 0.078125 C 1.789062 0.078125 1.613281 0.0078125 1.46875 -0.125 C 1.332031 -0.269531 1.265625 -0.441406 1.265625 -0.640625 L 1.265625 -7.5625 C 1.265625 -7.757812 1.332031 -7.929688 1.46875 -8.078125 C 1.613281 -8.222656 1.789062 -8.296875 2 -8.296875 C 2.195312 -8.296875 2.367188 -8.222656 2.515625 -8.078125 C 2.660156 -7.929688 2.734375 -7.757812 2.734375 -7.5625 L 2.734375 -6.859375 C 3.484375 -7.867188 4.328125 -8.375 5.265625 -8.375 L 5.34375 -8.375 C 5.550781 -8.375 5.722656 -8.300781 5.859375 -8.15625 C 5.992188 -8.019531 6.0625 -7.851562 6.0625 -7.65625 C 6.0625 -7.445312 5.988281 -7.273438 5.84375 -7.140625 C 5.707031 -7.015625 5.53125 -6.953125 5.3125 -6.953125 L 5.234375 -6.953125 C 4.722656 -6.953125 4.25 -6.828125 3.8125 -6.578125 C 3.382812 -6.328125 3.023438 -5.984375 2.734375 -5.546875 L 2.734375 -0.640625 C 2.734375 -0.441406 2.660156 -0.269531 2.515625 -0.125 C 2.367188 0.0078125 2.195312 0.078125 2 0.078125 Z M 2 0.078125 "/></g></g></g><g fill="#ffffff" fill-opacity="1"><g transform="translate(677.908306, 190.530414)"><g><path d="M 1.484375 2.4375 C 1.347656 2.4375 1.234375 2.382812 1.140625 2.28125 C 1.054688 2.1875 1.015625 2.078125 1.015625 1.953125 C 1.015625 1.773438 1.09375 1.640625 1.25 1.546875 C 1.519531 1.390625 1.722656 1.203125 1.859375 0.984375 C 2.003906 0.765625 2.078125 0.453125 2.078125 0.046875 L 2.015625 0.046875 C 1.765625 0.046875 1.550781 -0.0390625 1.375 -0.21875 C 1.195312 -0.394531 1.109375 -0.609375 1.109375 -0.859375 L 1.109375 -0.953125 C 1.109375 -1.203125 1.195312 -1.414062 1.375 -1.59375 C 1.550781 -1.769531 1.765625 -1.859375 2.015625 -1.859375 L 2.171875 -1.859375 C 2.421875 -1.859375 2.632812 -1.769531 2.8125 -1.59375 C 2.988281 -1.414062 3.078125 -1.203125 3.078125 -0.953125 L 3.078125 0 C 3.078125 1.03125 2.632812 1.816406 1.75 2.359375 C 1.664062 2.410156 1.578125 2.4375 1.484375 2.4375 Z M 1.484375 2.4375 "/></g></g></g><g fill="#ffffff" fill-opacity="1"><g transform="translate(682.094986, 190.530414)"><g/></g></g><g fill="#ffffff" fill-opacity="1"><g transform="translate(686.281666, 190.530414)"><g><path d="M 2 3.78125 C 1.789062 3.78125 1.613281 3.707031 1.46875 3.5625 C 1.332031 3.414062 1.265625 3.242188 1.265625 3.046875 L 1.265625 -7.578125 C 1.265625 -7.773438 1.332031 -7.941406 1.46875 -8.078125 C 1.613281 -8.222656 1.789062 -8.296875 2 -8.296875 C 2.195312 -8.296875 2.367188 -8.222656 2.515625 -8.078125 C 2.660156 -7.941406 2.734375 -7.773438 2.734375 -7.578125 L 2.734375 -7.15625 C 3.523438 -7.96875 4.445312 -8.375 5.5 -8.375 C 6.15625 -8.375 6.78125 -8.203125 7.375 -7.859375 C 7.976562 -7.523438 8.460938 -7.03125 8.828125 -6.375 C 9.203125 -5.726562 9.390625 -4.972656 9.390625 -4.109375 C 9.390625 -3.234375 9.203125 -2.472656 8.828125 -1.828125 C 8.460938 -1.179688 7.976562 -0.6875 7.375 -0.34375 C 6.78125 -0.0078125 6.15625 0.15625 5.5 0.15625 C 4.445312 0.15625 3.523438 -0.25 2.734375 -1.0625 L 2.734375 3.046875 C 2.734375 3.253906 2.660156 3.425781 2.515625 3.5625 C 2.378906 3.707031 2.207031 3.78125 2 3.78125 Z M 5.28125 -1.203125 C 6.070312 -1.203125 6.707031 -1.453125 7.1875 -1.953125 C 7.675781 -2.460938 7.921875 -3.179688 7.921875 -4.109375 C 7.921875 -5.035156 7.675781 -5.75 7.1875 -6.25 C 6.707031 -6.75 6.070312 -7 5.28125 -7 C 4.789062 -7 4.328125 -6.890625 3.890625 -6.671875 C 3.453125 -6.453125 3.066406 -6.160156 2.734375 -5.796875 L 2.734375 -2.421875 C 3.066406 -2.054688 3.453125 -1.757812 3.890625 -1.53125 C 4.328125 -1.3125 4.789062 -1.203125 5.28125 -1.203125 Z M 5.28125 -1.203125 "/></g></g></g><g fill="#ffffff" fill-opacity="1"><g transform="translate(696.442422, 190.530414)"><g><path d="M 3.359375 0.15625 C 2.890625 0.15625 2.453125 0.0625 2.046875 -0.125 C 1.648438 -0.320312 1.332031 -0.601562 1.09375 -0.96875 C 0.851562 -1.34375 0.734375 -1.769531 0.734375 -2.25 C 0.734375 -3.050781 1.046875 -3.6875 1.671875 -4.15625 C 2.304688 -4.625 3.234375 -4.859375 4.453125 -4.859375 L 6.390625 -4.859375 L 6.390625 -5 C 6.390625 -5.707031 6.210938 -6.210938 5.859375 -6.515625 C 5.515625 -6.828125 4.972656 -6.984375 4.234375 -6.984375 C 3.828125 -6.984375 3.460938 -6.953125 3.140625 -6.890625 C 2.828125 -6.828125 2.476562 -6.734375 2.09375 -6.609375 C 2.007812 -6.585938 1.941406 -6.578125 1.890625 -6.578125 C 1.722656 -6.578125 1.578125 -6.632812 1.453125 -6.75 C 1.335938 -6.863281 1.28125 -7.007812 1.28125 -7.1875 C 1.28125 -7.476562 1.421875 -7.679688 1.703125 -7.796875 C 2.617188 -8.179688 3.550781 -8.375 4.5 -8.375 C 5.238281 -8.375 5.863281 -8.222656 6.375 -7.921875 C 6.882812 -7.617188 7.257812 -7.226562 7.5 -6.75 C 7.738281 -6.28125 7.859375 -5.765625 7.859375 -5.203125 L 7.859375 -0.640625 C 7.859375 -0.441406 7.785156 -0.269531 7.640625 -0.125 C 7.492188 0.0078125 7.320312 0.078125 7.125 0.078125 C 6.914062 0.078125 6.738281 0.0078125 6.59375 -0.125 C 6.457031 -0.269531 6.390625 -0.441406 6.390625 -0.640625 L 6.390625 -1.0625 C 5.597656 -0.25 4.585938 0.15625 3.359375 0.15625 Z M 3.921875 -1.125 C 4.390625 -1.125 4.84375 -1.238281 5.28125 -1.46875 C 5.71875 -1.707031 6.085938 -1.992188 6.390625 -2.328125 L 6.390625 -3.6875 L 4.640625 -3.6875 C 3.015625 -3.6875 2.203125 -3.265625 2.203125 -2.421875 C 2.203125 -2.035156 2.332031 -1.722656 2.59375 -1.484375 C 2.863281 -1.242188 3.304688 -1.125 3.921875 -1.125 Z M 3.921875 -1.125 "/></g></g></g><g fill="#ffffff" fill-opacity="1"><g transform="translate(705.492091, 190.530414)"><g><path d="M 2 0.078125 C 1.789062 0.078125 1.613281 0.0078125 1.46875 -0.125 C 1.332031 -0.269531 1.265625 -0.441406 1.265625 -0.640625 L 1.265625 -7.5625 C 1.265625 -7.757812 1.332031 -7.929688 1.46875 -8.078125 C 1.613281 -8.222656 1.789062 -8.296875 2 -8.296875 C 2.195312 -8.296875 2.367188 -8.222656 2.515625 -8.078125 C 2.660156 -7.929688 2.734375 -7.757812 2.734375 -7.5625 L 2.734375 -6.859375 C 3.484375 -7.867188 4.328125 -8.375 5.265625 -8.375 L 5.34375 -8.375 C 5.550781 -8.375 5.722656 -8.300781 5.859375 -8.15625 C 5.992188 -8.019531 6.0625 -7.851562 6.0625 -7.65625 C 6.0625 -7.445312 5.988281 -7.273438 5.84375 -7.140625 C 5.707031 -7.015625 5.53125 -6.953125 5.3125 -6.953125 L 5.234375 -6.953125 C 4.722656 -6.953125 4.25 -6.828125 3.8125 -6.578125 C 3.382812 -6.328125 3.023438 -5.984375 2.734375 -5.546875 L 2.734375 -0.640625 C 2.734375 -0.441406 2.660156 -0.269531 2.515625 -0.125 C 2.367188 0.0078125 2.195312 0.078125 2 0.078125 Z M 2 0.078125 "/></g></g></g><g fill="#ffffff" fill-opacity="1"><g transform="translate(711.659395, 190.530414)"><g><path d="M 3.359375 0.15625 C 2.890625 0.15625 2.453125 0.0625 2.046875 -0.125 C 1.648438 -0.320312 1.332031 -0.601562 1.09375 -0.96875 C 0.851562 -1.34375 0.734375 -1.769531 0.734375 -2.25 C 0.734375 -3.050781 1.046875 -3.6875 1.671875 -4.15625 C 2.304688 -4.625 3.234375 -4.859375 4.453125 -4.859375 L 6.390625 -4.859375 L 6.390625 -5 C 6.390625 -5.707031 6.210938 -6.210938 5.859375 -6.515625 C 5.515625 -6.828125 4.972656 -6.984375 4.234375 -6.984375 C 3.828125 -6.984375 3.460938 -6.953125 3.140625 -6.890625 C 2.828125 -6.828125 2.476562 -6.734375 2.09375 -6.609375 C 2.007812 -6.585938 1.941406 -6.578125 1.890625 -6.578125 C 1.722656 -6.578125 1.578125 -6.632812 1.453125 -6.75 C 1.335938 -6.863281 1.28125 -7.007812 1.28125 -7.1875 C 1.28125 -7.476562 1.421875 -7.679688 1.703125 -7.796875 C 2.617188 -8.179688 3.550781 -8.375 4.5 -8.375 C 5.238281 -8.375 5.863281 -8.222656 6.375 -7.921875 C 6.882812 -7.617188 7.257812 -7.226562 7.5 -6.75 C 7.738281 -6.28125 7.859375 -5.765625 7.859375 -5.203125 L 7.859375 -0.640625 C 7.859375 -0.441406 7.785156 -0.269531 7.640625 -0.125 C 7.492188 0.0078125 7.320312 0.078125 7.125 0.078125 C 6.914062 0.078125 6.738281 0.0078125 6.59375 -0.125 C 6.457031 -0.269531 6.390625 -0.441406 6.390625 -0.640625 L 6.390625 -1.0625 C 5.597656 -0.25 4.585938 0.15625 3.359375 0.15625 Z M 3.921875 -1.125 C 4.390625 -1.125 4.84375 -1.238281 5.28125 -1.46875 C 5.71875 -1.707031 6.085938 -1.992188 6.390625 -2.328125 L 6.390625 -3.6875 L 4.640625 -3.6875 C 3.015625 -3.6875 2.203125 -3.265625 2.203125 -2.421875 C 2.203125 -2.035156 2.332031 -1.722656 2.59375 -1.484375 C 2.863281 -1.242188 3.304688 -1.125 3.921875 -1.125 Z M 3.921875 -1.125 "/></g></g></g><g fill="#ffffff" fill-opacity="1"><g transform="translate(720.709065, 190.530414)"><g/></g></g><g fill="#ffffff" fill-opacity="1"><g transform="translate(724.895744, 190.530414)"><g><path d="M 2 0.078125 C 1.789062 0.078125 1.613281 0.0078125 1.46875 -0.125 C 1.332031 -0.269531 1.265625 -0.441406 1.265625 -0.640625 L 1.265625 -11.09375 C 1.265625 -11.300781 1.332031 -11.476562 1.46875 -11.625 C 1.613281 -11.769531 1.789062 -11.84375 2 -11.84375 C 2.207031 -11.84375 2.378906 -11.769531 2.515625 -11.625 C 2.660156 -11.488281 2.734375 -11.3125 2.734375 -11.09375 L 2.734375 -0.640625 C 2.734375 -0.441406 2.660156 -0.269531 2.515625 -0.125 C 2.367188 0.0078125 2.195312 0.078125 2 0.078125 Z M 2 0.078125 "/></g></g></g><g fill="#ffffff" fill-opacity="1"><g transform="translate(728.905299, 190.530414)"><g><path d="M 4.890625 0.15625 C 4.066406 0.15625 3.34375 -0.0195312 2.71875 -0.375 C 2.09375 -0.726562 1.609375 -1.226562 1.265625 -1.875 C 0.929688 -2.519531 0.765625 -3.265625 0.765625 -4.109375 C 0.765625 -4.941406 0.929688 -5.679688 1.265625 -6.328125 C 1.609375 -6.984375 2.09375 -7.488281 2.71875 -7.84375 C 3.34375 -8.195312 4.066406 -8.375 4.890625 -8.375 C 5.710938 -8.375 6.429688 -8.195312 7.046875 -7.84375 C 7.671875 -7.488281 8.15625 -6.984375 8.5 -6.328125 C 8.84375 -5.679688 9.015625 -4.941406 9.015625 -4.109375 C 9.015625 -3.265625 8.84375 -2.519531 8.5 -1.875 C 8.15625 -1.226562 7.671875 -0.726562 7.046875 -0.375 C 6.429688 -0.0195312 5.710938 0.15625 4.890625 0.15625 Z M 4.890625 -1.171875 C 5.335938 -1.171875 5.757812 -1.269531 6.15625 -1.46875 C 6.5625 -1.675781 6.894531 -2 7.15625 -2.4375 C 7.425781 -2.882812 7.5625 -3.445312 7.5625 -4.125 C 7.5625 -4.789062 7.425781 -5.34375 7.15625 -5.78125 C 6.894531 -6.21875 6.5625 -6.535156 6.15625 -6.734375 C 5.757812 -6.941406 5.335938 -7.046875 4.890625 -7.046875 C 4.441406 -7.046875 4.015625 -6.941406 3.609375 -6.734375 C 3.210938 -6.535156 2.882812 -6.21875 2.625 -5.78125 C 2.363281 -5.34375 2.234375 -4.789062 2.234375 -4.125 C 2.234375 -3.445312 2.363281 -2.882812 2.625 -2.4375 C 2.882812 -2 3.210938 -1.675781 3.609375 -1.46875 C 4.015625 -1.269531 4.441406 -1.171875 4.890625 -1.171875 Z M 4.890625 -1.171875 "/></g></g></g><g fill="#ffffff" fill-opacity="1"><g transform="translate(738.695696, 190.530414)"><g><path d="M 3.9375 0.15625 C 2.851562 0.15625 1.875 -0.0820312 1 -0.5625 C 0.8125 -0.6875 0.71875 -0.863281 0.71875 -1.09375 C 0.71875 -1.269531 0.773438 -1.421875 0.890625 -1.546875 C 1.015625 -1.671875 1.171875 -1.734375 1.359375 -1.734375 C 1.453125 -1.734375 1.546875 -1.710938 1.640625 -1.671875 C 1.984375 -1.523438 2.328125 -1.40625 2.671875 -1.3125 C 3.015625 -1.226562 3.398438 -1.1875 3.828125 -1.1875 C 5.023438 -1.1875 5.625 -1.566406 5.625 -2.328125 C 5.625 -2.578125 5.484375 -2.765625 5.203125 -2.890625 C 4.929688 -3.023438 4.484375 -3.171875 3.859375 -3.328125 C 3.234375 -3.484375 2.710938 -3.640625 2.296875 -3.796875 C 1.878906 -3.960938 1.523438 -4.207031 1.234375 -4.53125 C 0.941406 -4.863281 0.796875 -5.296875 0.796875 -5.828125 C 0.796875 -6.578125 1.066406 -7.1875 1.609375 -7.65625 C 2.148438 -8.132812 2.925781 -8.375 3.9375 -8.375 C 4.757812 -8.375 5.535156 -8.238281 6.265625 -7.96875 C 6.410156 -7.925781 6.523438 -7.847656 6.609375 -7.734375 C 6.691406 -7.617188 6.734375 -7.492188 6.734375 -7.359375 C 6.734375 -7.191406 6.671875 -7.039062 6.546875 -6.90625 C 6.421875 -6.78125 6.269531 -6.71875 6.09375 -6.71875 C 6.039062 -6.71875 5.96875 -6.726562 5.875 -6.75 C 5.257812 -6.945312 4.648438 -7.046875 4.046875 -7.046875 C 3.460938 -7.046875 3.003906 -6.9375 2.671875 -6.71875 C 2.347656 -6.507812 2.1875 -6.238281 2.1875 -5.90625 C 2.1875 -5.582031 2.335938 -5.347656 2.640625 -5.203125 C 2.941406 -5.054688 3.410156 -4.910156 4.046875 -4.765625 C 4.679688 -4.609375 5.195312 -4.453125 5.59375 -4.296875 C 5.988281 -4.140625 6.328125 -3.894531 6.609375 -3.5625 C 6.898438 -3.226562 7.046875 -2.78125 7.046875 -2.21875 C 7.046875 -1.53125 6.769531 -0.960938 6.21875 -0.515625 C 5.675781 -0.0664062 4.914062 0.15625 3.9375 0.15625 Z M 3.9375 0.15625 "/></g></g></g><g fill="#ffffff" fill-opacity="1"><g transform="translate(746.424958, 190.530414)"><g/></g></g><g fill="#ffffff" fill-opacity="1"><g transform="translate(750.611638, 190.530414)"><g><path d="M 2 0.078125 C 1.789062 0.078125 1.613281 0.0078125 1.46875 -0.125 C 1.332031 -0.269531 1.265625 -0.441406 1.265625 -0.640625 L 1.265625 -7.5625 C 1.265625 -7.757812 1.332031 -7.929688 1.46875 -8.078125 C 1.613281 -8.222656 1.789062 -8.296875 2 -8.296875 C 2.195312 -8.296875 2.367188 -8.222656 2.515625 -8.078125 C 2.660156 -7.929688 2.734375 -7.757812 2.734375 -7.5625 L 2.734375 -6.890625 C 3.035156 -7.328125 3.398438 -7.679688 3.828125 -7.953125 C 4.253906 -8.234375 4.804688 -8.375 5.484375 -8.375 C 6.078125 -8.375 6.585938 -8.210938 7.015625 -7.890625 C 7.453125 -7.566406 7.757812 -7.175781 7.9375 -6.71875 C 8.601562 -7.820312 9.59375 -8.375 10.90625 -8.375 C 11.507812 -8.375 12.007812 -8.222656 12.40625 -7.921875 C 12.8125 -7.617188 13.109375 -7.234375 13.296875 -6.765625 C 13.492188 -6.296875 13.59375 -5.800781 13.59375 -5.28125 L 13.59375 -0.640625 C 13.59375 -0.441406 13.519531 -0.269531 13.375 -0.125 C 13.226562 0.0078125 13.054688 0.078125 12.859375 0.078125 C 12.648438 0.078125 12.472656 0.0078125 12.328125 -0.125 C 12.191406 -0.269531 12.125 -0.441406 12.125 -0.640625 L 12.125 -5 C 12.125 -5.695312 12 -6.207031 11.75 -6.53125 C 11.507812 -6.863281 11.085938 -7.03125 10.484375 -7.03125 C 9.941406 -7.03125 9.488281 -6.882812 9.125 -6.59375 C 8.769531 -6.3125 8.453125 -5.941406 8.171875 -5.484375 L 8.171875 -0.640625 C 8.171875 -0.441406 8.097656 -0.269531 7.953125 -0.125 C 7.804688 0.0078125 7.628906 0.078125 7.421875 0.078125 C 7.222656 0.078125 7.050781 0.0078125 6.90625 -0.125 C 6.769531 -0.269531 6.703125 -0.441406 6.703125 -0.640625 L 6.703125 -5 C 6.703125 -5.695312 6.578125 -6.207031 6.328125 -6.53125 C 6.078125 -6.863281 5.65625 -7.03125 5.0625 -7.03125 C 4.507812 -7.03125 4.050781 -6.882812 3.6875 -6.59375 C 3.332031 -6.3125 3.015625 -5.941406 2.734375 -5.484375 L 2.734375 -0.640625 C 2.734375 -0.441406 2.660156 -0.269531 2.515625 -0.125 C 2.367188 0.0078125 2.195312 0.078125 2 0.078125 Z M 2 0.078125 "/></g></g></g><g fill="#ffffff" fill-opacity="1"><g transform="translate(765.393851, 190.530414)"><g><path d="M 4.953125 0.15625 C 3.640625 0.15625 2.613281 -0.210938 1.875 -0.953125 C 1.132812 -1.703125 0.765625 -2.753906 0.765625 -4.109375 C 0.765625 -4.867188 0.90625 -5.570312 1.1875 -6.21875 C 1.46875 -6.863281 1.894531 -7.382812 2.46875 -7.78125 C 3.050781 -8.175781 3.769531 -8.375 4.625 -8.375 C 5.414062 -8.375 6.101562 -8.1875 6.6875 -7.8125 C 7.269531 -7.445312 7.707031 -6.953125 8 -6.328125 C 8.300781 -5.710938 8.453125 -5.039062 8.453125 -4.3125 C 8.453125 -4.113281 8.382812 -3.941406 8.25 -3.796875 C 8.125 -3.660156 7.945312 -3.59375 7.71875 -3.59375 L 2.25 -3.59375 C 2.34375 -2.84375 2.625 -2.253906 3.09375 -1.828125 C 3.5625 -1.410156 4.222656 -1.203125 5.078125 -1.203125 C 5.523438 -1.203125 5.914062 -1.242188 6.25 -1.328125 C 6.59375 -1.421875 6.925781 -1.546875 7.25 -1.703125 C 7.332031 -1.742188 7.429688 -1.765625 7.546875 -1.765625 C 7.710938 -1.765625 7.859375 -1.707031 7.984375 -1.59375 C 8.117188 -1.476562 8.1875 -1.328125 8.1875 -1.140625 C 8.1875 -0.910156 8.046875 -0.710938 7.765625 -0.546875 C 7.347656 -0.304688 6.929688 -0.128906 6.515625 -0.015625 C 6.109375 0.0976562 5.585938 0.15625 4.953125 0.15625 Z M 7 -4.78125 C 6.96875 -5.3125 6.832031 -5.753906 6.59375 -6.109375 C 6.351562 -6.460938 6.054688 -6.722656 5.703125 -6.890625 C 5.347656 -7.054688 4.988281 -7.140625 4.625 -7.140625 C 4.257812 -7.140625 3.898438 -7.054688 3.546875 -6.890625 C 3.191406 -6.722656 2.894531 -6.460938 2.65625 -6.109375 C 2.414062 -5.753906 2.28125 -5.3125 2.25 -4.78125 Z M 7 -4.78125 "/></g></g></g><g fill="#ffffff" fill-opacity="1"><g transform="translate(774.507946, 190.530414)"><g><path d="M 2.046875 -9.890625 C 1.816406 -9.890625 1.617188 -9.96875 1.453125 -10.125 C 1.296875 -10.289062 1.21875 -10.488281 1.21875 -10.71875 L 1.21875 -10.78125 C 1.21875 -11 1.296875 -11.1875 1.453125 -11.34375 C 1.617188 -11.507812 1.816406 -11.59375 2.046875 -11.59375 L 2.140625 -11.59375 C 2.367188 -11.59375 2.5625 -11.507812 2.71875 -11.34375 C 2.882812 -11.1875 2.96875 -11 2.96875 -10.78125 L 2.96875 -10.71875 C 2.96875 -10.488281 2.882812 -10.289062 2.71875 -10.125 C 2.5625 -9.96875 2.367188 -9.890625 2.140625 -9.890625 Z M 0.703125 3.859375 C 0.316406 3.859375 -0.0195312 3.8125 -0.3125 3.71875 C -0.4375 3.675781 -0.535156 3.601562 -0.609375 3.5 C -0.679688 3.394531 -0.71875 3.273438 -0.71875 3.140625 C -0.71875 2.984375 -0.660156 2.84375 -0.546875 2.71875 C -0.429688 2.59375 -0.285156 2.53125 -0.109375 2.53125 C -0.046875 2.53125 0.03125 2.535156 0.125 2.546875 C 0.226562 2.566406 0.3125 2.578125 0.375 2.578125 C 0.707031 2.578125 0.953125 2.515625 1.109375 2.390625 C 1.273438 2.273438 1.359375 2.019531 1.359375 1.625 L 1.359375 -7.546875 C 1.359375 -7.742188 1.425781 -7.914062 1.5625 -8.0625 C 1.695312 -8.207031 1.867188 -8.28125 2.078125 -8.28125 C 2.296875 -8.28125 2.472656 -8.207031 2.609375 -8.0625 C 2.742188 -7.925781 2.8125 -7.753906 2.8125 -7.546875 L 2.8125 1.65625 C 2.8125 2.320312 2.640625 2.851562 2.296875 3.25 C 1.960938 3.65625 1.429688 3.859375 0.703125 3.859375 Z M 0.703125 3.859375 "/></g></g></g><g fill="#ffffff" fill-opacity="1"><g transform="translate(778.598012, 190.530414)"><g><path d="M 4.890625 0.15625 C 4.066406 0.15625 3.34375 -0.0195312 2.71875 -0.375 C 2.09375 -0.726562 1.609375 -1.226562 1.265625 -1.875 C 0.929688 -2.519531 0.765625 -3.265625 0.765625 -4.109375 C 0.765625 -4.941406 0.929688 -5.679688 1.265625 -6.328125 C 1.609375 -6.984375 2.09375 -7.488281 2.71875 -7.84375 C 3.34375 -8.195312 4.066406 -8.375 4.890625 -8.375 C 5.710938 -8.375 6.429688 -8.195312 7.046875 -7.84375 C 7.671875 -7.488281 8.15625 -6.984375 8.5 -6.328125 C 8.84375 -5.679688 9.015625 -4.941406 9.015625 -4.109375 C 9.015625 -3.265625 8.84375 -2.519531 8.5 -1.875 C 8.15625 -1.226562 7.671875 -0.726562 7.046875 -0.375 C 6.429688 -0.0195312 5.710938 0.15625 4.890625 0.15625 Z M 4.890625 -1.171875 C 5.335938 -1.171875 5.757812 -1.269531 6.15625 -1.46875 C 6.5625 -1.675781 6.894531 -2 7.15625 -2.4375 C 7.425781 -2.882812 7.5625 -3.445312 7.5625 -4.125 C 7.5625 -4.789062 7.425781 -5.34375 7.15625 -5.78125 C 6.894531 -6.21875 6.5625 -6.535156 6.15625 -6.734375 C 5.757812 -6.941406 5.335938 -7.046875 4.890625 -7.046875 C 4.441406 -7.046875 4.015625 -6.941406 3.609375 -6.734375 C 3.210938 -6.535156 2.882812 -6.21875 2.625 -5.78125 C 2.363281 -5.34375 2.234375 -4.789062 2.234375 -4.125 C 2.234375 -3.445312 2.363281 -2.882812 2.625 -2.4375 C 2.882812 -2 3.210938 -1.675781 3.609375 -1.46875 C 4.015625 -1.269531 4.441406 -1.171875 4.890625 -1.171875 Z M 4.890625 -1.171875 "/></g></g></g><g fill="#ffffff" fill-opacity="1"><g transform="translate(788.388401, 190.530414)"><g><path d="M 2 0.078125 C 1.789062 0.078125 1.613281 0.0078125 1.46875 -0.125 C 1.332031 -0.269531 1.265625 -0.441406 1.265625 -0.640625 L 1.265625 -7.5625 C 1.265625 -7.757812 1.332031 -7.929688 1.46875 -8.078125 C 1.613281 -8.222656 1.789062 -8.296875 2 -8.296875 C 2.195312 -8.296875 2.367188 -8.222656 2.515625 -8.078125 C 2.660156 -7.929688 2.734375 -7.757812 2.734375 -7.5625 L 2.734375 -6.859375 C 3.484375 -7.867188 4.328125 -8.375 5.265625 -8.375 L 5.34375 -8.375 C 5.550781 -8.375 5.722656 -8.300781 5.859375 -8.15625 C 5.992188 -8.019531 6.0625 -7.851562 6.0625 -7.65625 C 6.0625 -7.445312 5.988281 -7.273438 5.84375 -7.140625 C 5.707031 -7.015625 5.53125 -6.953125 5.3125 -6.953125 L 5.234375 -6.953125 C 4.722656 -6.953125 4.25 -6.828125 3.8125 -6.578125 C 3.382812 -6.328125 3.023438 -5.984375 2.734375 -5.546875 L 2.734375 -0.640625 C 2.734375 -0.441406 2.660156 -0.269531 2.515625 -0.125 C 2.367188 0.0078125 2.195312 0.078125 2 0.078125 Z M 2 0.078125 "/></g></g></g><g fill="#ffffff" fill-opacity="1"><g transform="translate(794.555705, 190.530414)"><g><path d="M 4.953125 0.15625 C 3.640625 0.15625 2.613281 -0.210938 1.875 -0.953125 C 1.132812 -1.703125 0.765625 -2.753906 0.765625 -4.109375 C 0.765625 -4.867188 0.90625 -5.570312 1.1875 -6.21875 C 1.46875 -6.863281 1.894531 -7.382812 2.46875 -7.78125 C 3.050781 -8.175781 3.769531 -8.375 4.625 -8.375 C 5.414062 -8.375 6.101562 -8.1875 6.6875 -7.8125 C 7.269531 -7.445312 7.707031 -6.953125 8 -6.328125 C 8.300781 -5.710938 8.453125 -5.039062 8.453125 -4.3125 C 8.453125 -4.113281 8.382812 -3.941406 8.25 -3.796875 C 8.125 -3.660156 7.945312 -3.59375 7.71875 -3.59375 L 2.25 -3.59375 C 2.34375 -2.84375 2.625 -2.253906 3.09375 -1.828125 C 3.5625 -1.410156 4.222656 -1.203125 5.078125 -1.203125 C 5.523438 -1.203125 5.914062 -1.242188 6.25 -1.328125 C 6.59375 -1.421875 6.925781 -1.546875 7.25 -1.703125 C 7.332031 -1.742188 7.429688 -1.765625 7.546875 -1.765625 C 7.710938 -1.765625 7.859375 -1.707031 7.984375 -1.59375 C 8.117188 -1.476562 8.1875 -1.328125 8.1875 -1.140625 C 8.1875 -0.910156 8.046875 -0.710938 7.765625 -0.546875 C 7.347656 -0.304688 6.929688 -0.128906 6.515625 -0.015625 C 6.109375 0.0976562 5.585938 0.15625 4.953125 0.15625 Z M 7 -4.78125 C 6.96875 -5.3125 6.832031 -5.753906 6.59375 -6.109375 C 6.351562 -6.460938 6.054688 -6.722656 5.703125 -6.890625 C 5.347656 -7.054688 4.988281 -7.140625 4.625 -7.140625 C 4.257812 -7.140625 3.898438 -7.054688 3.546875 -6.890625 C 3.191406 -6.722656 2.894531 -6.460938 2.65625 -6.109375 C 2.414062 -5.753906 2.28125 -5.3125 2.25 -4.78125 Z M 7 -4.78125 "/></g></g></g><g fill="#ffffff" fill-opacity="1"><g transform="translate(803.6698, 190.530414)"><g><path d="M 3.9375 0.15625 C 2.851562 0.15625 1.875 -0.0820312 1 -0.5625 C 0.8125 -0.6875 0.71875 -0.863281 0.71875 -1.09375 C 0.71875 -1.269531 0.773438 -1.421875 0.890625 -1.546875 C 1.015625 -1.671875 1.171875 -1.734375 1.359375 -1.734375 C 1.453125 -1.734375 1.546875 -1.710938 1.640625 -1.671875 C 1.984375 -1.523438 2.328125 -1.40625 2.671875 -1.3125 C 3.015625 -1.226562 3.398438 -1.1875 3.828125 -1.1875 C 5.023438 -1.1875 5.625 -1.566406 5.625 -2.328125 C 5.625 -2.578125 5.484375 -2.765625 5.203125 -2.890625 C 4.929688 -3.023438 4.484375 -3.171875 3.859375 -3.328125 C 3.234375 -3.484375 2.710938 -3.640625 2.296875 -3.796875 C 1.878906 -3.960938 1.523438 -4.207031 1.234375 -4.53125 C 0.941406 -4.863281 0.796875 -5.296875 0.796875 -5.828125 C 0.796875 -6.578125 1.066406 -7.1875 1.609375 -7.65625 C 2.148438 -8.132812 2.925781 -8.375 3.9375 -8.375 C 4.757812 -8.375 5.535156 -8.238281 6.265625 -7.96875 C 6.410156 -7.925781 6.523438 -7.847656 6.609375 -7.734375 C 6.691406 -7.617188 6.734375 -7.492188 6.734375 -7.359375 C 6.734375 -7.191406 6.671875 -7.039062 6.546875 -6.90625 C 6.421875 -6.78125 6.269531 -6.71875 6.09375 -6.71875 C 6.039062 -6.71875 5.96875 -6.726562 5.875 -6.75 C 5.257812 -6.945312 4.648438 -7.046875 4.046875 -7.046875 C 3.460938 -7.046875 3.003906 -6.9375 2.671875 -6.71875 C 2.347656 -6.507812 2.1875 -6.238281 2.1875 -5.90625 C 2.1875 -5.582031 2.335938 -5.347656 2.640625 -5.203125 C 2.941406 -5.054688 3.410156 -4.910156 4.046875 -4.765625 C 4.679688 -4.609375 5.195312 -4.453125 5.59375 -4.296875 C 5.988281 -4.140625 6.328125 -3.894531 6.609375 -3.5625 C 6.898438 -3.226562 7.046875 -2.78125 7.046875 -2.21875 C 7.046875 -1.53125 6.769531 -0.960938 6.21875 -0.515625 C 5.675781 -0.0664062 4.914062 0.15625 3.9375 0.15625 Z M 3.9375 0.15625 "/></g></g></g></svg>