<?xml version="1.0" standalone="no"?><svg xmlns="http://www.w3.org/2000/svg" viewBox="0 0 1440 320"><path fill="#e83c56" fill-opacity="1" d="M0,64L20,96C40,128,80,192,120,224C160,256,200,256,240,261.3C280,267,320,277,360,266.7C400,256,440,224,480,218.7C520,213,560,235,600,245.3C640,256,680,256,720,245.3C760,235,800,213,840,213.3C880,213,920,235,960,208C1000,181,1040,107,1080,90.7C1120,75,1160,117,1200,122.7C1240,128,1280,96,1320,80C1360,64,1400,64,1420,64L1440,64L1440,320L1420,320C1400,320,1360,320,1320,320C1280,320,1240,320,1200,320C1160,320,1120,320,1080,320C1040,320,1000,320,960,320C920,320,880,320,840,320C800,320,760,320,720,320C680,320,640,320,600,320C560,320,520,320,480,320C440,320,400,320,360,320C320,320,280,320,240,320C200,320,160,320,120,320C80,320,40,320,20,320L0,320Z"></path></svg>